{
	"asset":{
		"generator":"Khronos glTF Blender I/O v4.1.62",
		"version":"2.0"
	},
	"extensionsUsed":[
		"KHR_lights_punctual"
	],
	"extensionsRequired":[
		"KHR_lights_punctual"
	],
	"extensions":{
		"KHR_lights_punctual":{
			"lights":[
				{
					"color":[
						1,
						1,
						1
					],
					"intensity":2,
					"type":"directional",
					"name":"Light"
				}
			]
		}
	},
	"scene":0,
	"scenes":[
		{
			"name":"Scene",
			"nodes":[
				0,
				1,
				2,
				8,
				14,
				18,
				19,
				20,
				21,
				22,
				23,
				24,
				25,
				26,
				27,
				28,
				29,
				30
			]
		}
	],
	"nodes":[
		{
			"extensions":{
				"KHR_lights_punctual":{
					"light":0
				}
			},
			"name":"Light",
			"rotation":[
				-0.04845159500837326,
				0.06739141792058945,
				0.7290910482406616,
				0.6793652772903442
			],
			"translation":[
				1.34690260887146,
				1.7214245796203613,
				5.009904861450195
			]
		},
		{
			"camera":0,
			"name":"Camera",
			"rotation":[
				-0.005399337969720364,
				0.01584227941930294,
				-0.006513843312859535,
				0.9998387098312378
			],
			"translation":[
				1.067620038986206,
				1.1723895072937012,
				4.243836402893066
			]
		},
		{
			"mesh":0,
			"name":"Plane001",
			"scale":[
				0.009999999776482582,
				0.009999999776482582,
				0.009999999776482582
			],
			"translation":[
				0.9240379333496094,
				0,
				0.7532806396484375
			]
		},
		{
			"mesh":1,
			"name":"Box001",
			"rotation":[
				0.675841748714447,
				0.20793746411800385,
				-0.20793753862380981,
				0.6758416891098022
			],
			"translation":[
				-23.452972412109375,
				10.316412925720215,
				-32.58030319213867
			]
		},
		{
			"mesh":2,
			"name":"Box002",
			"rotation":[
				0.665145218372345,
				-0.2399623543024063,
				0.2399623543024063,
				0.665145218372345
			],
			"translation":[
				19.163393020629883,
				12.314716339111328,
				-32.860923767089844
			]
		},
		{
			"mesh":3,
			"name":"Box003",
			"rotation":[
				0.6469130516052246,
				-0.013495939783751965,
				0.015902861952781677,
				0.7622785568237305
			],
			"translation":[
				-1.004928708076477,
				12.314716339111328,
				-26.237735748291016
			]
		},
		{
			"mesh":4,
			"name":"Cylinder001",
			"translation":[
				1.243552327156067,
				-7.412496089935303,
				-0.3191525340080261
			]
		},
		{
			"mesh":5,
			"name":"Sphere001",
			"translation":[
				-0.00023955266806297004,
				5.11699914932251,
				0.017143039032816887
			]
		},
		{
			"children":[
				3,
				4,
				5,
				6,
				7
			],
			"name":"chair",
			"rotation":[
				0,
				0.2903447151184082,
				0,
				0.9569221138954163
			],
			"scale":[
				0.009999999776482582,
				0.009999999776482582,
				0.009999999776482582
			],
			"translation":[
				0.19251969456672668,
				0.41573619842529297,
				-0.569232165813446
			]
		},
		{
			"mesh":6,
			"name":"Box004",
			"rotation":[
				0.675841748714447,
				0.20793744921684265,
				-0.20793753862380981,
				0.6758416891098022
			],
			"translation":[
				-23.452964782714844,
				10.316413879394531,
				-32.580299377441406
			]
		},
		{
			"mesh":7,
			"name":"Box005",
			"rotation":[
				0.665145218372345,
				-0.2399623543024063,
				0.2399623543024063,
				0.665145218372345
			],
			"translation":[
				19.163415908813477,
				12.314716339111328,
				-32.86091232299805
			]
		},
		{
			"mesh":8,
			"name":"Box006",
			"rotation":[
				0.6469130516052246,
				-0.01349593885242939,
				0.015902860090136528,
				0.7622785568237305
			],
			"translation":[
				-1.004918098449707,
				12.314716339111328,
				-26.237733840942383
			]
		},
		{
			"mesh":9,
			"name":"Cylinder002",
			"translation":[
				1.2435442209243774,
				-7.412496089935303,
				-0.3191438317298889
			]
		},
		{
			"mesh":10,
			"name":"Sphere002",
			"translation":[
				-0.00023189815692603588,
				5.11699914932251,
				0.017160385847091675
			]
		},
		{
			"children":[
				9,
				10,
				11,
				12,
				13
			],
			"name":"chair001",
			"rotation":[
				0,
				-0.19960859417915344,
				0,
				0.9798756837844849
			],
			"scale":[
				0.009999999776482582,
				0.009999999776482582,
				0.009999999776482582
			],
			"translation":[
				1.2763742208480835,
				0.41573619842529297,
				-0.5499657988548279
			]
		},
		{
			"mesh":11,
			"name":"Cylinder001.001",
			"rotation":[
				0.5,
				-0.5,
				0.5000000596046448,
				0.4999999403953552
			],
			"translation":[
				8.003342628479004,
				-4.593180179595947,
				48.48760223388672
			]
		},
		{
			"mesh":12,
			"name":"Cylinder002.001",
			"rotation":[
				-0.70710688829422,
				0,
				-0.7071066498756409,
				4.7485363552368653e-07
			],
			"translation":[
				-3.008376359939575,
				10.000020027160645,
				48.872962951660156
			]
		},
		{
			"name":"Object",
			"translation":[
				-141.9134521484375,
				-137.9471435546875,
				-121.67261505126953
			]
		},
		{
			"children":[
				15,
				16,
				17
			],
			"name":"sconce",
			"rotation":[
				0,
				0.7071067094802856,
				0,
				0.7071068286895752
			],
			"scale":[
				0.009999999776482582,
				0.009999999776482582,
				0.009999999776482582
			],
			"translation":[
				1.5529143810272217,
				1.5000137090682983,
				-1.1463053226470947
			]
		},
		{
			"mesh":13,
			"name":"floor",
			"scale":[
				0.009999999776482582,
				0.009999999776482582,
				0.009999999776482582
			],
			"translation":[
				0.9240379333496094,
				0,
				0.7532806396484375
			]
		},
		{
			"mesh":14,
			"name":"wall",
			"scale":[
				0.009999999776482582,
				0.009999999776482582,
				0.009999999776482582
			],
			"translation":[
				0.9240379333496094,
				0,
				0.7532806396484375
			]
		},
		{
			"mesh":15,
			"name":"Cylinder003",
			"rotation":[
				0.7071068286895752,
				0,
				0,
				0.7071068286895752
			],
			"scale":[
				0.009999999776482582,
				0.009999999776482582,
				0.009999999776482582
			],
			"translation":[
				-0.12047287076711655,
				1.4579375982284546,
				-1.2263386249542236
			]
		},
		{
			"mesh":16,
			"name":"Cylinder004",
			"rotation":[
				-1,
				0,
				0,
				7.907535746198846e-07
			],
			"scale":[
				0.009999999776482582,
				0.009999999776482582,
				0.009999999776482582
			],
			"translation":[
				-0.11661925911903381,
				1.6038695573806763,
				-1.11622154712677
			]
		},
		{
			"name":"Object001",
			"rotation":[
				0,
				0.7071067094802856,
				0,
				0.7071068286895752
			],
			"scale":[
				0.009999999776482582,
				0.009999999776482582,
				0.009999999776482582
			],
			"translation":[
				-1.8220751285552979,
				0.12439803779125214,
				0.2728292644023895
			]
		},
		{
			"name":"Rectangle001",
			"rotation":[
				0.5,
				-0.5000000596046448,
				0.5,
				0.4999999701976776
			],
			"scale":[
				0.009999999776482582,
				0.009999999776482582,
				0.009999999776482582
			],
			"translation":[
				0.6894876956939697,
				0.13374024629592896,
				0.48399728536605835
			]
		},
		{
			"name":"Rectangle002",
			"rotation":[
				0,
				0.7071068286895752,
				-0.7071068286895752,
				1.3767879636361613e-07
			],
			"scale":[
				0.009999999776482582,
				0.009999999776482582,
				0.009999999776482582
			],
			"translation":[
				0.6741583347320557,
				0.13374024629592896,
				0.48399728536605835
			]
		},
		{
			"mesh":17,
			"name":"Cylinder006",
			"scale":[
				0.009999999776482582,
				0.009999999776482582,
				0.009999999776482582
			],
			"translation":[
				2.5752224922180176,
				0.6408329010009766,
				-0.7760982513427734
			]
		},
		{
			"mesh":18,
			"name":"Cylinder007",
			"scale":[
				0.009999999776482582,
				0.009999999776482582,
				0.009999999776482582
			],
			"translation":[
				2.574385166168213,
				0.03443847969174385,
				-0.7726805806159973
			]
		},
		{
			"mesh":19,
			"name":"Cylinder008",
			"scale":[
				0.009999999776482582,
				0.009999999776482582,
				0.009999999776482582
			],
			"translation":[
				-0.7646639347076416,
				0.6408329010009766,
				-0.5261548757553101
			]
		},
		{
			"mesh":20,
			"name":"Cylinder009",
			"scale":[
				0.009999999776482582,
				0.009999999776482582,
				0.009999999776482582
			],
			"translation":[
				-0.7655013799667358,
				0.03443847969174385,
				-0.5227372050285339
			]
		},
		{
			"mesh":21,
			"name":"floor.001",
			"rotation":[
				-1,
				0,
				0,
				1.6292067073209182e-07
			],
			"scale":[
				0.009999999776482582,
				0.009999999776482582,
				0.009999999776482582
			],
			"translation":[
				0.9240379333496094,
				2.984510660171509,
				0.7532806396484375
			]
		}
	],
	"cameras":[
		{
			"name":"Camera",
			"perspective":{
				"aspectRatio":1.7777777777777777,
				"yfov":0.750415851665512,
				"zfar":100,
				"znear":0.10000000149011612
			},
			"type":"perspective"
		}
	],
	"materials":[
		{
			"doubleSided":true,
			"name":"Pillow",
			"pbrMetallicRoughness":{
				"baseColorFactor":[
					0.8002663850784302,
					0,
					0.014774147421121597,
					1
				],
				"metallicFactor":0,
				"roughnessFactor":0.8544303178787231
			}
		},
		{
			"doubleSided":true,
			"name":"Seat",
			"pbrMetallicRoughness":{
				"baseColorFactor":[
					0.1414230912923813,
					0.1414230912923813,
					0.1414230912923813,
					1
				],
				"metallicFactor":0,
				"roughnessFactor":0.5
			}
		},
		{
			"doubleSided":true,
			"name":"Chair",
			"pbrMetallicRoughness":{
				"baseColorFactor":[
					0.007504153996706009,
					0.007504153996706009,
					0.007504153996706009,
					1
				],
				"metallicFactor":0.1582278460264206,
				"roughnessFactor":0.5759493708610535
			}
		},
		{
			"doubleSided":true,
			"name":"LightCover",
			"pbrMetallicRoughness":{}
		},
		{
			"doubleSided":true,
			"name":"Floor",
			"pbrMetallicRoughness":{
				"baseColorFactor":[
					0.08874914050102234,
					0.08874914050102234,
					0.08874914050102234,
					1
				],
				"metallicFactor":0,
				"roughnessFactor":0.5
			}
		},
		{
			"doubleSided":true,
			"name":"Walls",
			"pbrMetallicRoughness":{
				"baseColorFactor":[
					0.33152681589126587,
					0.18397551774978638,
					0.0698041319847107,
					1
				],
				"metallicFactor":0.48101264238357544,
				"roughnessFactor":0.4873417615890503
			}
		},
		{
			"doubleSided":true,
			"name":"LampShade",
			"pbrMetallicRoughness":{
				"baseColorFactor":[
					0.8002911806106567,
					0.4021521806716919,
					0.1027216762304306,
					1
				],
				"metallicFactor":0,
				"roughnessFactor":0.5
			}
		},
		{
			"doubleSided":true,
			"name":"LampBase",
			"pbrMetallicRoughness":{
				"baseColorFactor":[
					0.02413414791226387,
					0.02413414791226387,
					0.02413414791226387,
					1
				],
				"metallicFactor":0
			}
		},
		{
			"doubleSided":true,
			"name":"Floor.001",
			"pbrMetallicRoughness":{
				"baseColorFactor":[
					0.08874914050102234,
					0.08874914050102234,
					0.08874914050102234,
					1
				],
				"metallicFactor":0,
				"roughnessFactor":0.5
			}
		}
	],
	"meshes":[
		{
			"name":"Mesh",
			"primitives":[
				{
					"attributes":{
						"POSITION":0,
						"NORMAL":1,
						"TEXCOORD_0":2
					},
					"indices":3
				}
			]
		},
		{
			"name":"Mesh.005",
			"primitives":[
				{
					"attributes":{
						"POSITION":4,
						"NORMAL":5,
						"TEXCOORD_0":6
					},
					"indices":7,
					"material":0
				}
			]
		},
		{
			"name":"Mesh.004",
			"primitives":[
				{
					"attributes":{
						"POSITION":8,
						"NORMAL":9,
						"TEXCOORD_0":10
					},
					"indices":7,
					"material":0
				}
			]
		},
		{
			"name":"Mesh.003",
			"primitives":[
				{
					"attributes":{
						"POSITION":11,
						"NORMAL":12,
						"TEXCOORD_0":13
					},
					"indices":7,
					"material":0
				}
			]
		},
		{
			"name":"Mesh.002",
			"primitives":[
				{
					"attributes":{
						"POSITION":14,
						"NORMAL":15,
						"TEXCOORD_0":16
					},
					"indices":17,
					"material":1
				}
			]
		},
		{
			"name":"Mesh.001",
			"primitives":[
				{
					"attributes":{
						"POSITION":18,
						"NORMAL":19,
						"TEXCOORD_0":20
					},
					"indices":21,
					"material":2
				}
			]
		},
		{
			"name":"Mesh.006",
			"primitives":[
				{
					"attributes":{
						"POSITION":22,
						"NORMAL":23,
						"TEXCOORD_0":24
					},
					"indices":7,
					"material":0
				}
			]
		},
		{
			"name":"Mesh.007",
			"primitives":[
				{
					"attributes":{
						"POSITION":25,
						"NORMAL":26,
						"TEXCOORD_0":27
					},
					"indices":7,
					"material":0
				}
			]
		},
		{
			"name":"Mesh.008",
			"primitives":[
				{
					"attributes":{
						"POSITION":28,
						"NORMAL":29,
						"TEXCOORD_0":30
					},
					"indices":7,
					"material":0
				}
			]
		},
		{
			"name":"Mesh.009",
			"primitives":[
				{
					"attributes":{
						"POSITION":31,
						"NORMAL":32,
						"TEXCOORD_0":33
					},
					"indices":17,
					"material":1
				}
			]
		},
		{
			"name":"Mesh.010",
			"primitives":[
				{
					"attributes":{
						"POSITION":34,
						"NORMAL":35,
						"TEXCOORD_0":36
					},
					"indices":21,
					"material":2
				}
			]
		},
		{
			"name":"Mesh.012",
			"primitives":[
				{
					"attributes":{
						"POSITION":37,
						"NORMAL":38,
						"TEXCOORD_0":39
					},
					"indices":40,
					"material":2
				}
			]
		},
		{
			"name":"Mesh.011",
			"primitives":[
				{
					"attributes":{
						"POSITION":41,
						"NORMAL":42,
						"TEXCOORD_0":43
					},
					"indices":44,
					"material":3
				}
			]
		},
		{
			"name":"Mesh.013",
			"primitives":[
				{
					"attributes":{
						"POSITION":45,
						"NORMAL":46,
						"TEXCOORD_0":47
					},
					"indices":48,
					"material":4
				}
			]
		},
		{
			"name":"Mesh.014",
			"primitives":[
				{
					"attributes":{
						"POSITION":49,
						"NORMAL":50,
						"TEXCOORD_0":51
					},
					"indices":52,
					"material":5
				}
			]
		},
		{
			"name":"Mesh.016",
			"primitives":[
				{
					"attributes":{
						"POSITION":53,
						"NORMAL":54,
						"TEXCOORD_0":55
					},
					"indices":40,
					"material":2
				}
			]
		},
		{
			"name":"Mesh.017",
			"primitives":[
				{
					"attributes":{
						"POSITION":56,
						"NORMAL":57,
						"TEXCOORD_0":58
					},
					"indices":44,
					"material":3
				}
			]
		},
		{
			"name":"Mesh.019",
			"primitives":[
				{
					"attributes":{
						"POSITION":59,
						"NORMAL":60,
						"TEXCOORD_0":61
					},
					"indices":62,
					"material":6
				}
			]
		},
		{
			"name":"Mesh.020",
			"primitives":[
				{
					"attributes":{
						"POSITION":63,
						"NORMAL":64,
						"TEXCOORD_0":65
					},
					"indices":66,
					"material":7
				}
			]
		},
		{
			"name":"Mesh.021",
			"primitives":[
				{
					"attributes":{
						"POSITION":67,
						"NORMAL":68,
						"TEXCOORD_0":69
					},
					"indices":62,
					"material":6
				}
			]
		},
		{
			"name":"Mesh.022",
			"primitives":[
				{
					"attributes":{
						"POSITION":70,
						"NORMAL":71,
						"TEXCOORD_0":72
					},
					"indices":66,
					"material":7
				}
			]
		},
		{
			"name":"Mesh.023",
			"primitives":[
				{
					"attributes":{
						"POSITION":73,
						"NORMAL":74,
						"TEXCOORD_0":75
					},
					"indices":48,
					"material":8
				}
			]
		}
	],
	"accessors":[
		{
			"bufferView":0,
			"componentType":5126,
			"count":3,
			"max":[
				200,
				300,
				-200
			],
			"min":[
				-200,
				300,
				-200
			],
			"type":"VEC3"
		},
		{
			"bufferView":1,
			"componentType":5126,
			"count":3,
			"type":"VEC3"
		},
		{
			"bufferView":2,
			"componentType":5126,
			"count":3,
			"type":"VEC2"
		},
		{
			"bufferView":3,
			"componentType":5123,
			"count":3,
			"type":"SCALAR"
		},
		{
			"bufferView":4,
			"componentType":5126,
			"count":506,
			"max":[
				20.688838958740234,
				7.869736671447754,
				20.68354034423828
			],
			"min":[
				-20.688091278076172,
				-2.8688244819641113,
				-20.693344116210938
			],
			"type":"VEC3"
		},
		{
			"bufferView":5,
			"componentType":5126,
			"count":506,
			"type":"VEC3"
		},
		{
			"bufferView":6,
			"componentType":5126,
			"count":506,
			"type":"VEC2"
		},
		{
			"bufferView":7,
			"componentType":5123,
			"count":2400,
			"type":"SCALAR"
		},
		{
			"bufferView":8,
			"componentType":5126,
			"count":506,
			"max":[
				20.688838958740234,
				7.869736671447754,
				20.68354034423828
			],
			"min":[
				-20.688091278076172,
				-2.8688244819641113,
				-20.693344116210938
			],
			"type":"VEC3"
		},
		{
			"bufferView":9,
			"componentType":5126,
			"count":506,
			"type":"VEC3"
		},
		{
			"bufferView":10,
			"componentType":5126,
			"count":506,
			"type":"VEC2"
		},
		{
			"bufferView":11,
			"componentType":5126,
			"count":506,
			"max":[
				20.688838958740234,
				7.869736671447754,
				20.68354034423828
			],
			"min":[
				-20.688091278076172,
				-2.8688244819641113,
				-20.693344116210938
			],
			"type":"VEC3"
		},
		{
			"bufferView":12,
			"componentType":5126,
			"count":506,
			"type":"VEC3"
		},
		{
			"bufferView":13,
			"componentType":5126,
			"count":506,
			"type":"VEC2"
		},
		{
			"bufferView":14,
			"componentType":5126,
			"count":154,
			"max":[
				44.63168716430664,
				3.814697265625e-06,
				43.95363235473633
			],
			"min":[
				-44.63168716430664,
				-17.38787078857422,
				-38.74199295043945
			],
			"type":"VEC3"
		},
		{
			"bufferView":15,
			"componentType":5126,
			"count":154,
			"type":"VEC3"
		},
		{
			"bufferView":16,
			"componentType":5126,
			"count":154,
			"type":"VEC2"
		},
		{
			"bufferView":17,
			"componentType":5123,
			"count":648,
			"type":"SCALAR"
		},
		{
			"bufferView":18,
			"componentType":5126,
			"count":231,
			"max":[
				49.99998474121094,
				37.1612434387207,
				50
			],
			"min":[
				-50,
				-46.184120178222656,
				-49.999969482421875
			],
			"type":"VEC3"
		},
		{
			"bufferView":19,
			"componentType":5126,
			"count":231,
			"type":"VEC3"
		},
		{
			"bufferView":20,
			"componentType":5126,
			"count":231,
			"type":"VEC2"
		},
		{
			"bufferView":21,
			"componentType":5123,
			"count":1152,
			"type":"SCALAR"
		},
		{
			"bufferView":22,
			"componentType":5126,
			"count":506,
			"max":[
				20.688838958740234,
				7.869736671447754,
				20.68354034423828
			],
			"min":[
				-20.688091278076172,
				-2.8688244819641113,
				-20.693344116210938
			],
			"type":"VEC3"
		},
		{
			"bufferView":23,
			"componentType":5126,
			"count":506,
			"type":"VEC3"
		},
		{
			"bufferView":24,
			"componentType":5126,
			"count":506,
			"type":"VEC2"
		},
		{
			"bufferView":25,
			"componentType":5126,
			"count":506,
			"max":[
				20.688838958740234,
				7.869736671447754,
				20.68354034423828
			],
			"min":[
				-20.688091278076172,
				-2.8688244819641113,
				-20.693344116210938
			],
			"type":"VEC3"
		},
		{
			"bufferView":26,
			"componentType":5126,
			"count":506,
			"type":"VEC3"
		},
		{
			"bufferView":27,
			"componentType":5126,
			"count":506,
			"type":"VEC2"
		},
		{
			"bufferView":28,
			"componentType":5126,
			"count":506,
			"max":[
				20.688838958740234,
				7.869736671447754,
				20.68354034423828
			],
			"min":[
				-20.688091278076172,
				-2.8688244819641113,
				-20.693344116210938
			],
			"type":"VEC3"
		},
		{
			"bufferView":29,
			"componentType":5126,
			"count":506,
			"type":"VEC3"
		},
		{
			"bufferView":30,
			"componentType":5126,
			"count":506,
			"type":"VEC2"
		},
		{
			"bufferView":31,
			"componentType":5126,
			"count":154,
			"max":[
				44.63168716430664,
				3.814697265625e-06,
				43.95363235473633
			],
			"min":[
				-44.63168716430664,
				-17.38787078857422,
				-38.74199295043945
			],
			"type":"VEC3"
		},
		{
			"bufferView":32,
			"componentType":5126,
			"count":154,
			"type":"VEC3"
		},
		{
			"bufferView":33,
			"componentType":5126,
			"count":154,
			"type":"VEC2"
		},
		{
			"bufferView":34,
			"componentType":5126,
			"count":231,
			"max":[
				49.99998474121094,
				37.1612434387207,
				50
			],
			"min":[
				-50,
				-46.184120178222656,
				-49.999969482421875
			],
			"type":"VEC3"
		},
		{
			"bufferView":35,
			"componentType":5126,
			"count":231,
			"type":"VEC3"
		},
		{
			"bufferView":36,
			"componentType":5126,
			"count":231,
			"type":"VEC2"
		},
		{
			"bufferView":37,
			"componentType":5126,
			"count":352,
			"max":[
				5,
				6,
				4.994965553283691
			],
			"min":[
				-4.97987174987793,
				0,
				-4.994965553283691
			],
			"type":"VEC3"
		},
		{
			"bufferView":38,
			"componentType":5126,
			"count":352,
			"type":"VEC3"
		},
		{
			"bufferView":39,
			"componentType":5126,
			"count":352,
			"type":"VEC2"
		},
		{
			"bufferView":40,
			"componentType":5123,
			"count":828,
			"type":"SCALAR"
		},
		{
			"bufferView":41,
			"componentType":5126,
			"count":916,
			"max":[
				5,
				20,
				4.994965553283691
			],
			"min":[
				-4.97987174987793,
				0,
				-4.994965553283691
			],
			"type":"VEC3"
		},
		{
			"bufferView":42,
			"componentType":5126,
			"count":916,
			"type":"VEC3"
		},
		{
			"bufferView":43,
			"componentType":5126,
			"count":916,
			"type":"VEC2"
		},
		{
			"bufferView":44,
			"componentType":5123,
			"count":1890,
			"type":"SCALAR"
		},
		{
			"bufferView":45,
			"componentType":5126,
			"count":4,
			"max":[
				200,
				0,
				200
			],
			"min":[
				-200,
				0,
				-200
			],
			"type":"VEC3"
		},
		{
			"bufferView":46,
			"componentType":5126,
			"count":4,
			"type":"VEC3"
		},
		{
			"bufferView":47,
			"componentType":5126,
			"count":4,
			"type":"VEC2"
		},
		{
			"bufferView":48,
			"componentType":5123,
			"count":6,
			"type":"SCALAR"
		},
		{
			"bufferView":49,
			"componentType":5126,
			"count":13,
			"max":[
				200,
				300,
				200
			],
			"min":[
				-200,
				0,
				-200
			],
			"type":"VEC3"
		},
		{
			"bufferView":50,
			"componentType":5126,
			"count":13,
			"type":"VEC3"
		},
		{
			"bufferView":51,
			"componentType":5126,
			"count":13,
			"type":"VEC2"
		},
		{
			"bufferView":52,
			"componentType":5123,
			"count":21,
			"type":"SCALAR"
		},
		{
			"bufferView":53,
			"componentType":5126,
			"count":352,
			"max":[
				5,
				6,
				4.994965553283691
			],
			"min":[
				-4.97987174987793,
				0,
				-4.994965553283691
			],
			"type":"VEC3"
		},
		{
			"bufferView":54,
			"componentType":5126,
			"count":352,
			"type":"VEC3"
		},
		{
			"bufferView":55,
			"componentType":5126,
			"count":352,
			"type":"VEC2"
		},
		{
			"bufferView":56,
			"componentType":5126,
			"count":916,
			"max":[
				5,
				20,
				4.994965553283691
			],
			"min":[
				-4.97987174987793,
				0,
				-4.994965553283691
			],
			"type":"VEC3"
		},
		{
			"bufferView":57,
			"componentType":5126,
			"count":916,
			"type":"VEC3"
		},
		{
			"bufferView":58,
			"componentType":5126,
			"count":916,
			"type":"VEC2"
		},
		{
			"bufferView":59,
			"componentType":5126,
			"count":38,
			"max":[
				33.3088264465332,
				44.26228332519531,
				32.802791595458984
			],
			"min":[
				-33.3088264465332,
				0,
				-32.802791595458984
			],
			"type":"VEC3"
		},
		{
			"bufferView":60,
			"componentType":5126,
			"count":38,
			"type":"VEC3"
		},
		{
			"bufferView":61,
			"componentType":5126,
			"count":38,
			"type":"VEC2"
		},
		{
			"bufferView":62,
			"componentType":5123,
			"count":108,
			"type":"SCALAR"
		},
		{
			"bufferView":63,
			"componentType":5126,
			"count":534,
			"max":[
				23.364234924316406,
				61.568199157714844,
				23.353973388671875
			],
			"min":[
				-23.32320213317871,
				-2.868854522705078,
				-23.353973388671875
			],
			"type":"VEC3"
		},
		{
			"bufferView":64,
			"componentType":5126,
			"count":534,
			"type":"VEC3"
		},
		{
			"bufferView":65,
			"componentType":5126,
			"count":534,
			"type":"VEC2"
		},
		{
			"bufferView":66,
			"componentType":5123,
			"count":1260,
			"type":"SCALAR"
		},
		{
			"bufferView":67,
			"componentType":5126,
			"count":38,
			"max":[
				33.3088264465332,
				44.26228332519531,
				32.802791595458984
			],
			"min":[
				-33.3088264465332,
				0,
				-32.802791595458984
			],
			"type":"VEC3"
		},
		{
			"bufferView":68,
			"componentType":5126,
			"count":38,
			"type":"VEC3"
		},
		{
			"bufferView":69,
			"componentType":5126,
			"count":38,
			"type":"VEC2"
		},
		{
			"bufferView":70,
			"componentType":5126,
			"count":534,
			"max":[
				23.364234924316406,
				61.568199157714844,
				23.353973388671875
			],
			"min":[
				-23.32320213317871,
				-2.868854522705078,
				-23.353973388671875
			],
			"type":"VEC3"
		},
		{
			"bufferView":71,
			"componentType":5126,
			"count":534,
			"type":"VEC3"
		},
		{
			"bufferView":72,
			"componentType":5126,
			"count":534,
			"type":"VEC2"
		},
		{
			"bufferView":73,
			"componentType":5126,
			"count":4,
			"max":[
				200,
				0,
				200
			],
			"min":[
				-200,
				0,
				-200
			],
			"type":"VEC3"
		},
		{
			"bufferView":74,
			"componentType":5126,
			"count":4,
			"type":"VEC3"
		},
		{
			"bufferView":75,
			"componentType":5126,
			"count":4,
			"type":"VEC2"
		}
	],
	"bufferViews":[
		{
			"buffer":0,
			"byteLength":36,
			"byteOffset":0,
			"target":34962
		},
		{
			"buffer":0,
			"byteLength":36,
			"byteOffset":36,
			"target":34962
		},
		{
			"buffer":0,
			"byteLength":24,
			"byteOffset":72,
			"target":34962
		},
		{
			"buffer":0,
			"byteLength":6,
			"byteOffset":96,
			"target":34963
		},
		{
			"buffer":0,
			"byteLength":6072,
			"byteOffset":104,
			"target":34962
		},
		{
			"buffer":0,
			"byteLength":6072,
			"byteOffset":6176,
			"target":34962
		},
		{
			"buffer":0,
			"byteLength":4048,
			"byteOffset":12248,
			"target":34962
		},
		{
			"buffer":0,
			"byteLength":4800,
			"byteOffset":16296,
			"target":34963
		},
		{
			"buffer":0,
			"byteLength":6072,
			"byteOffset":21096,
			"target":34962
		},
		{
			"buffer":0,
			"byteLength":6072,
			"byteOffset":27168,
			"target":34962
		},
		{
			"buffer":0,
			"byteLength":4048,
			"byteOffset":33240,
			"target":34962
		},
		{
			"buffer":0,
			"byteLength":6072,
			"byteOffset":37288,
			"target":34962
		},
		{
			"buffer":0,
			"byteLength":6072,
			"byteOffset":43360,
			"target":34962
		},
		{
			"buffer":0,
			"byteLength":4048,
			"byteOffset":49432,
			"target":34962
		},
		{
			"buffer":0,
			"byteLength":1848,
			"byteOffset":53480,
			"target":34962
		},
		{
			"buffer":0,
			"byteLength":1848,
			"byteOffset":55328,
			"target":34962
		},
		{
			"buffer":0,
			"byteLength":1232,
			"byteOffset":57176,
			"target":34962
		},
		{
			"buffer":0,
			"byteLength":1296,
			"byteOffset":58408,
			"target":34963
		},
		{
			"buffer":0,
			"byteLength":2772,
			"byteOffset":59704,
			"target":34962
		},
		{
			"buffer":0,
			"byteLength":2772,
			"byteOffset":62476,
			"target":34962
		},
		{
			"buffer":0,
			"byteLength":1848,
			"byteOffset":65248,
			"target":34962
		},
		{
			"buffer":0,
			"byteLength":2304,
			"byteOffset":67096,
			"target":34963
		},
		{
			"buffer":0,
			"byteLength":6072,
			"byteOffset":69400,
			"target":34962
		},
		{
			"buffer":0,
			"byteLength":6072,
			"byteOffset":75472,
			"target":34962
		},
		{
			"buffer":0,
			"byteLength":4048,
			"byteOffset":81544,
			"target":34962
		},
		{
			"buffer":0,
			"byteLength":6072,
			"byteOffset":85592,
			"target":34962
		},
		{
			"buffer":0,
			"byteLength":6072,
			"byteOffset":91664,
			"target":34962
		},
		{
			"buffer":0,
			"byteLength":4048,
			"byteOffset":97736,
			"target":34962
		},
		{
			"buffer":0,
			"byteLength":6072,
			"byteOffset":101784,
			"target":34962
		},
		{
			"buffer":0,
			"byteLength":6072,
			"byteOffset":107856,
			"target":34962
		},
		{
			"buffer":0,
			"byteLength":4048,
			"byteOffset":113928,
			"target":34962
		},
		{
			"buffer":0,
			"byteLength":1848,
			"byteOffset":117976,
			"target":34962
		},
		{
			"buffer":0,
			"byteLength":1848,
			"byteOffset":119824,
			"target":34962
		},
		{
			"buffer":0,
			"byteLength":1232,
			"byteOffset":121672,
			"target":34962
		},
		{
			"buffer":0,
			"byteLength":2772,
			"byteOffset":122904,
			"target":34962
		},
		{
			"buffer":0,
			"byteLength":2772,
			"byteOffset":125676,
			"target":34962
		},
		{
			"buffer":0,
			"byteLength":1848,
			"byteOffset":128448,
			"target":34962
		},
		{
			"buffer":0,
			"byteLength":4224,
			"byteOffset":130296,
			"target":34962
		},
		{
			"buffer":0,
			"byteLength":4224,
			"byteOffset":134520,
			"target":34962
		},
		{
			"buffer":0,
			"byteLength":2816,
			"byteOffset":138744,
			"target":34962
		},
		{
			"buffer":0,
			"byteLength":1656,
			"byteOffset":141560,
			"target":34963
		},
		{
			"buffer":0,
			"byteLength":10992,
			"byteOffset":143216,
			"target":34962
		},
		{
			"buffer":0,
			"byteLength":10992,
			"byteOffset":154208,
			"target":34962
		},
		{
			"buffer":0,
			"byteLength":7328,
			"byteOffset":165200,
			"target":34962
		},
		{
			"buffer":0,
			"byteLength":3780,
			"byteOffset":172528,
			"target":34963
		},
		{
			"buffer":0,
			"byteLength":48,
			"byteOffset":176308,
			"target":34962
		},
		{
			"buffer":0,
			"byteLength":48,
			"byteOffset":176356,
			"target":34962
		},
		{
			"buffer":0,
			"byteLength":32,
			"byteOffset":176404,
			"target":34962
		},
		{
			"buffer":0,
			"byteLength":12,
			"byteOffset":176436,
			"target":34963
		},
		{
			"buffer":0,
			"byteLength":156,
			"byteOffset":176448,
			"target":34962
		},
		{
			"buffer":0,
			"byteLength":156,
			"byteOffset":176604,
			"target":34962
		},
		{
			"buffer":0,
			"byteLength":104,
			"byteOffset":176760,
			"target":34962
		},
		{
			"buffer":0,
			"byteLength":42,
			"byteOffset":176864,
			"target":34963
		},
		{
			"buffer":0,
			"byteLength":4224,
			"byteOffset":176908,
			"target":34962
		},
		{
			"buffer":0,
			"byteLength":4224,
			"byteOffset":181132,
			"target":34962
		},
		{
			"buffer":0,
			"byteLength":2816,
			"byteOffset":185356,
			"target":34962
		},
		{
			"buffer":0,
			"byteLength":10992,
			"byteOffset":188172,
			"target":34962
		},
		{
			"buffer":0,
			"byteLength":10992,
			"byteOffset":199164,
			"target":34962
		},
		{
			"buffer":0,
			"byteLength":7328,
			"byteOffset":210156,
			"target":34962
		},
		{
			"buffer":0,
			"byteLength":456,
			"byteOffset":217484,
			"target":34962
		},
		{
			"buffer":0,
			"byteLength":456,
			"byteOffset":217940,
			"target":34962
		},
		{
			"buffer":0,
			"byteLength":304,
			"byteOffset":218396,
			"target":34962
		},
		{
			"buffer":0,
			"byteLength":216,
			"byteOffset":218700,
			"target":34963
		},
		{
			"buffer":0,
			"byteLength":6408,
			"byteOffset":218916,
			"target":34962
		},
		{
			"buffer":0,
			"byteLength":6408,
			"byteOffset":225324,
			"target":34962
		},
		{
			"buffer":0,
			"byteLength":4272,
			"byteOffset":231732,
			"target":34962
		},
		{
			"buffer":0,
			"byteLength":2520,
			"byteOffset":236004,
			"target":34963
		},
		{
			"buffer":0,
			"byteLength":456,
			"byteOffset":238524,
			"target":34962
		},
		{
			"buffer":0,
			"byteLength":456,
			"byteOffset":238980,
			"target":34962
		},
		{
			"buffer":0,
			"byteLength":304,
			"byteOffset":239436,
			"target":34962
		},
		{
			"buffer":0,
			"byteLength":6408,
			"byteOffset":239740,
			"target":34962
		},
		{
			"buffer":0,
			"byteLength":6408,
			"byteOffset":246148,
			"target":34962
		},
		{
			"buffer":0,
			"byteLength":4272,
			"byteOffset":252556,
			"target":34962
		},
		{
			"buffer":0,
			"byteLength":48,
			"byteOffset":256828,
			"target":34962
		},
		{
			"buffer":0,
			"byteLength":48,
			"byteOffset":256876,
			"target":34962
		},
		{
			"buffer":0,
			"byteLength":32,
			"byteOffset":256924,
			"target":34962
		}
	],
	"buffers":[
		{
			"byteLength":256956,
			"uri":"Interior.bin"
		}
	]
}
